<svg width="380" height="380" viewBox="0 0 380 380" fill="none" xmlns="http://www.w3.org/2000/svg">
<path opacity="0.02" d="M380 190C380 294.933 294.933 380 190 380C85.0778 380 0 294.933 0 190C0 85.0778 85.0778 0 190 0C294.933 0 380 85.0778 380 190Z" fill="#51B853"/>
<path opacity="0.04" d="M330 190C330 267.319 267.319 330 190 330C112.689 330 50 267.319 50 190C50 112.689 112.689 50 190 50C267.319 50 330 112.689 330 190Z" fill="#51B853"/>
<path opacity="0.04" d="M280 190C280 239.705 239.705 280 190 280C140.3 280 100 239.705 100 190C100 140.3 140.3 100 190 100C239.705 100 280 140.3 280 190Z" fill="#51B853"/>
<path d="M230 190C230 212.091 212.091 230 190 230C167.911 230 150 212.091 150 190C150 167.911 167.911 150 190 150C212.091 150 230 167.911 230 190Z" fill="#51B853"/>
<path d="M202 181L185.5 197.5L178 190" stroke="white" stroke-width="4" stroke-linecap="round" stroke-linejoin="round"/>
</svg>
